<svg viewBox="0 0 432 144" height="2in" width="6in" xmlns="http://www.w3.org/2000/svg" id="Layer_1"><path d="M58.13,68.01c-1.49-1.64-3.76-2.46-6.8-2.46-1.99,0-3.64.34-4.96,1.01-1.32.67-2.37,1.51-3.16,2.5-.79,1-1.35,2.05-1.67,3.16-.32,1.11-.51,2.11-.57,2.98h20.27c-.59-3.16-1.62-5.55-3.12-7.19M44.05,91.87c1.87,1.81,4.56,2.72,8.07,2.72,2.51,0,4.68-.63,6.49-1.88,1.81-1.26,2.92-2.59,3.33-3.99h10.97c-1.75,5.44-4.44,9.33-8.07,11.67-3.63,2.34-8.01,3.51-13.16,3.51-3.57,0-6.78-.57-9.65-1.71-2.87-1.14-5.29-2.76-7.28-4.87-1.99-2.1-3.52-4.62-4.61-7.54-1.08-2.92-1.62-6.14-1.62-9.65s.56-6.55,1.67-9.47c1.11-2.92,2.69-5.45,4.74-7.59,2.05-2.13,4.49-3.81,7.33-5.04,2.83-1.23,5.98-1.84,9.43-1.84,3.86,0,7.22.75,10.09,2.24,2.86,1.49,5.22,3.49,7.06,6.01,1.84,2.52,3.17,5.38,3.99,8.6.82,3.22,1.11,6.58.88,10.09h-32.72c.18,4.03,1.2,6.96,3.07,8.77"></path><path d="M109.48,80.55c-.53.47-1.18.83-1.97,1.1-.79.26-1.64.48-2.54.66-.91.18-1.86.32-2.85.44-1,.12-1.99.26-2.98.44-.94.17-1.86.41-2.76.7-.91.29-1.7.69-2.37,1.19-.67.49-1.21,1.12-1.62,1.88-.41.76-.61,1.73-.61,2.89s.2,2.05.61,2.81.96,1.36,1.67,1.8c.7.44,1.52.74,2.45.92.93.17,1.9.26,2.89.26,2.46,0,4.36-.41,5.7-1.23,1.34-.82,2.34-1.8,2.98-2.94.64-1.14,1.04-2.29,1.18-3.46.15-1.17.22-2.11.22-2.81v-4.65ZM80.7,71.34c.18-2.92.9-5.35,2.19-7.28,1.29-1.93,2.92-3.48,4.91-4.65,1.99-1.17,4.23-2,6.71-2.5,2.48-.5,4.99-.75,7.5-.75,2.28,0,4.59.16,6.93.48,2.34.32,4.48.95,6.4,1.88,1.93.94,3.51,2.24,4.74,3.9,1.23,1.67,1.84,3.88,1.84,6.62v23.6c0,2.05.12,4.01.35,5.88.23,1.87.64,3.28,1.23,4.21h-12.63c-.23-.7-.43-1.42-.57-2.15-.15-.73-.25-1.48-.31-2.24-1.99,2.05-4.33,3.48-7.02,4.3-2.69.82-5.44,1.23-8.25,1.23-2.16,0-4.18-.26-6.05-.79-1.87-.53-3.51-1.34-4.91-2.46-1.4-1.11-2.5-2.51-3.29-4.21-.79-1.7-1.18-3.71-1.18-6.05,0-2.57.45-4.69,1.36-6.36.91-1.67,2.08-2.99,3.51-3.99,1.43-.99,3.07-1.74,4.91-2.24,1.84-.49,3.7-.89,5.57-1.18,1.87-.29,3.71-.53,5.53-.7,1.81-.18,3.42-.44,4.83-.79,1.4-.35,2.51-.86,3.33-1.54.82-.67,1.2-1.65,1.14-2.94,0-1.34-.22-2.41-.66-3.2-.44-.79-1.02-1.4-1.75-1.84-.73-.44-1.58-.73-2.54-.88-.96-.15-2-.22-3.11-.22-2.46,0-4.39.53-5.79,1.58-1.4,1.05-2.22,2.81-2.46,5.26h-12.46Z"></path><path d="M141.96,57.39v8.42h.18c.58-1.4,1.37-2.7,2.37-3.9.99-1.2,2.13-2.22,3.42-3.07,1.29-.85,2.66-1.5,4.12-1.97,1.46-.47,2.98-.7,4.56-.7.82,0,1.72.15,2.72.44v11.58c-.58-.12-1.28-.22-2.1-.31-.82-.09-1.61-.13-2.37-.13-2.28,0-4.21.38-5.79,1.14-1.58.76-2.85,1.8-3.82,3.11-.96,1.32-1.65,2.85-2.06,4.61-.41,1.75-.62,3.66-.62,5.7v20.44h-12.46v-45.36h11.84Z"></path><path d="M164.58,43.8h12.46v13.6h9.12v8.33h-9.12v22.46c0,2.1.35,3.51,1.05,4.21.7.7,2.11,1.05,4.21,1.05.7,0,1.37-.03,2.02-.09.64-.06,1.26-.15,1.84-.26v9.65c-1.05.18-2.22.29-3.51.35-1.29.06-2.54.09-3.77.09-1.93,0-3.76-.13-5.48-.39-1.72-.26-3.25-.77-4.56-1.54-1.31-.76-2.35-1.84-3.11-3.24-.76-1.4-1.14-3.25-1.14-5.53v-48.69Z"></path><path d="M206.68,40.11v23.6h.26c1.58-2.63,3.59-4.55,6.05-5.75,2.45-1.2,4.85-1.8,7.19-1.8,3.33,0,6.07.45,8.2,1.36s3.82,2.16,5.04,3.77c1.23,1.61,2.09,3.57,2.59,5.88.5,2.31.75,4.87.75,7.68v27.9h-12.46v-25.62c0-3.74-.59-6.53-1.75-8.38-1.17-1.84-3.25-2.76-6.23-2.76-3.39,0-5.85,1.01-7.37,3.03-1.52,2.02-2.28,5.34-2.28,9.96v23.77h-12.46v-62.64h12.46Z"></path><path d="M277.46,74.59c-.41-1.75-1.05-3.3-1.93-4.65-.88-1.34-1.97-2.41-3.29-3.2-1.32-.79-2.91-1.18-4.78-1.18s-3.39.39-4.74,1.18c-1.35.79-2.46,1.86-3.33,3.2-.88,1.35-1.52,2.89-1.93,4.65-.41,1.75-.62,3.6-.62,5.53s.21,3.68.62,5.44c.41,1.75,1.05,3.31,1.93,4.65.88,1.35,1.99,2.41,3.33,3.2,1.34.79,2.92,1.19,4.74,1.19s3.47-.4,4.78-1.19c1.32-.79,2.41-1.85,3.29-3.2.88-1.34,1.52-2.9,1.93-4.65.41-1.75.61-3.57.61-5.44s-.2-3.77-.61-5.53M257.28,40.11v22.81h.18c1.52-2.34,3.58-4.05,6.18-5.13,2.6-1.08,5.31-1.62,8.12-1.62,2.28,0,4.53.47,6.76,1.4,2.22.94,4.22,2.37,6.01,4.3,1.78,1.93,3.23,4.4,4.34,7.41,1.11,3.01,1.67,6.6,1.67,10.75s-.56,7.73-1.67,10.75c-1.11,3.01-2.56,5.48-4.34,7.41-1.78,1.93-3.79,3.36-6.01,4.3-2.22.93-4.48,1.4-6.76,1.4-3.33,0-6.32-.53-8.95-1.58-2.63-1.05-4.62-2.84-5.97-5.35h-.17v5.79h-11.84v-62.64h12.46Z"></path><path d="M326.4,80.55c-.53.47-1.18.83-1.97,1.1-.79.26-1.64.48-2.54.66-.91.18-1.86.32-2.85.44-.99.12-1.99.26-2.98.44-.94.17-1.86.41-2.76.7-.91.29-1.7.69-2.37,1.19-.67.49-1.21,1.12-1.62,1.88-.41.76-.62,1.73-.62,2.89s.21,2.05.62,2.81c.41.76.96,1.36,1.67,1.8.7.44,1.52.74,2.46.92.93.17,1.9.26,2.89.26,2.46,0,4.36-.41,5.7-1.23,1.34-.82,2.34-1.8,2.98-2.94.64-1.14,1.04-2.29,1.18-3.46.15-1.17.22-2.11.22-2.81v-4.65ZM297.63,71.34c.18-2.92.9-5.35,2.19-7.28,1.28-1.93,2.92-3.48,4.91-4.65,1.99-1.17,4.23-2,6.71-2.5,2.48-.5,4.99-.75,7.5-.75,2.28,0,4.59.16,6.93.48,2.34.32,4.48.95,6.4,1.88,1.93.94,3.51,2.24,4.74,3.9,1.23,1.67,1.84,3.88,1.84,6.62v23.6c0,2.05.12,4.01.35,5.88.23,1.87.64,3.28,1.23,4.21h-12.63c-.23-.7-.42-1.42-.57-2.15-.15-.73-.25-1.48-.31-2.24-1.99,2.05-4.33,3.48-7.02,4.3-2.69.82-5.44,1.23-8.25,1.23-2.17,0-4.18-.26-6.05-.79-1.87-.53-3.51-1.34-4.91-2.46-1.4-1.11-2.5-2.51-3.29-4.21-.79-1.7-1.18-3.71-1.18-6.05,0-2.57.45-4.69,1.36-6.36.91-1.66,2.08-2.99,3.51-3.99,1.43-.99,3.07-1.74,4.91-2.24,1.84-.5,3.7-.89,5.57-1.18,1.87-.29,3.71-.53,5.53-.7,1.81-.18,3.42-.44,4.83-.79,1.4-.35,2.51-.86,3.33-1.54.82-.67,1.2-1.65,1.14-2.94,0-1.34-.22-2.41-.66-3.2-.44-.79-1.02-1.4-1.75-1.84-.73-.44-1.58-.73-2.54-.88-.96-.15-2-.22-3.11-.22-2.46,0-4.39.53-5.79,1.58-1.4,1.05-2.22,2.81-2.46,5.26h-12.46Z"></path><path d="M358.92,57.39v8.42h.18c.58-1.4,1.37-2.7,2.37-3.9.99-1.2,2.13-2.22,3.42-3.07,1.29-.85,2.66-1.5,4.12-1.97,1.46-.47,2.98-.7,4.56-.7.82,0,1.72.15,2.72.44v11.58c-.58-.12-1.29-.22-2.1-.31-.82-.09-1.61-.13-2.37-.13-2.28,0-4.21.38-5.79,1.14-1.58.76-2.85,1.8-3.82,3.11-.96,1.32-1.65,2.85-2.06,4.61-.41,1.75-.61,3.66-.61,5.7v20.44h-12.46v-45.36h11.84Z"></path><path d="M389.58,78.05c-6.29,0-11.41,5.12-11.41,11.41s5.12,11.41,11.41,11.41,11.41-5.12,11.41-11.41-5.12-11.41-11.41-11.41M389.58,103.36c-7.66,0-13.9-6.23-13.9-13.9s6.23-13.9,13.9-13.9,13.9,6.23,13.9,13.9-6.23,13.9-13.9,13.9"></path><path d="M387.16,88.69h3.28c.64,0,1.13-.15,1.46-.46.33-.3.5-.76.5-1.37,0-.36-.05-.66-.16-.89-.11-.23-.25-.41-.44-.54-.19-.13-.4-.21-.64-.26-.24-.04-.49-.06-.74-.06h-3.25v3.57ZM385.16,83.49h5.46c1.26,0,2.2.27,2.83.82.63.55.94,1.3.94,2.27,0,.54-.08.99-.24,1.35-.16.36-.35.65-.56.86-.21.22-.42.38-.63.47-.21.1-.36.16-.46.19v.03c.17.02.36.07.55.16.2.09.38.22.55.41.17.19.31.43.42.73s.17.67.17,1.12c0,.67.05,1.28.15,1.83.1.55.26.94.47,1.18h-2.15c-.15-.25-.24-.52-.26-.82-.03-.3-.04-.59-.04-.86,0-.52-.03-.97-.1-1.35-.06-.38-.18-.69-.35-.95-.17-.25-.4-.43-.7-.55-.29-.12-.67-.18-1.13-.18h-2.95v4.71h-2v-11.43Z"></path></svg>